<svg class="ldi-bd2vbp" width="200px"  height="200px"  xmlns="http://www.w3.org/2000/svg" xmlns:xlink="http://www.w3.org/1999/xlink" viewBox="0 0 100 100" preserveAspectRatio="xMidYMid" style="background: none;"><!--?xml version="1.0" encoding="utf-8"?--><!--Generator: Adobe Illustrator 21.0.0, SVG Export Plug-In . SVG Version: 6.00 Build 0)--><svg version="1.1" id="Layer_1" xmlns="http://www.w3.org/2000/svg" xmlns:xlink="http://www.w3.org/1999/xlink" x="0px" y="0px" viewBox="0 0 100 100" style="transform-origin: 50px 50px 0px;" xml:space="preserve"><g style="transform-origin: 50px 50px 0px; transform: scale(0.6);"><g style="transform-origin: 50px 50px 0px; animation-duration: 1.1s; animation-delay: -1.1s;" class="ld ld-spin"><style type="text/css" class="" style="transform-origin: 50px 50px 0px; animation-duration: 1.1s; animation-delay: -1.1s;">.st0{fill:#F4E6C8;} .st1{opacity:0.8;fill:#849B87;} .st2{fill:#D65A62;} .st3{fill:#E15C64;} .st4{fill:#F47E5F;} .st5{fill:#F7B26A;} .st6{fill:#FEE8A2;} .st7{fill:#ACBD81;} .st8{fill:#F5E169;} .st9{fill:#F0AF6B;} .st10{fill:#EA7C60;} .st11{fill:#A8B980;} .st12{fill:#829985;} .st13{fill:#798AAE;} .st14{fill:#8672A7;} .st15{fill:#CC5960;} .st16{fill:#E17A5F;} .st17{fill:#849B87;} .st18{opacity:0.8;fill:#E15C64;} .st19{opacity:0.8;fill:#F7B26A;} .st20{fill:#79A5B5;} .st21{opacity:0.8;fill:#79A5B4;} .st22{fill:#666766;}</style><g class="" style="transform-origin: 50px 50px 0px; animation-duration: 1.1s; animation-delay: -1.05s;"><path class="st3" d="M20.9,27.8c-1,0-2,0.1-2.9,0.4l3.8-6.7c1.3-2.2,3.3-3.8,5.8-4.4c2.5-0.7,5-0.3,7.2,1l16.9,9.8H20.9z" fill="#212121" style="fill: rgb(33, 33, 33);"></path></g><g class="" style="transform-origin: 50px 50px 0px; animation-duration: 1.1s; animation-delay: -1s;"><path class="st5" d="M40.4,30H20.9c-5.3,0-9.5,4.3-9.5,9.5v7.7c0.7-0.7,1.5-1.3,2.3-1.8L40.4,30z" fill="#47d5cf" style="fill: rgb(71, 213, 207);"></path></g><g class="" style="transform-origin: 50px 50px 0px; animation-duration: 1.1s; animation-delay: -0.95s;"><path class="st3" d="M27.8,48.3l-9.8,16.9c-1.3,2.2-1.6,4.8-1,7.2c0.7,2.5,2.2,4.5,4.4,5.8l6.7,3.8c-0.2-0.9-0.4-1.9-0.4-2.9V48.3z" fill="#212121" style="fill: rgb(33, 33, 33);"></path></g><g class="" style="transform-origin: 50px 50px 0px; animation-duration: 1.1s; animation-delay: -0.9s;"><path class="st4" d="M62.6,31.7l-9.8-16.9c-1.3-2.2-3.3-3.8-5.8-4.4c-2.5-0.7-5-0.3-7.2,1l-6.7,3.8c0.9,0.3,1.9,0.6,2.7,1.1 L62.6,31.7z" fill="#212121" style="fill: rgb(33, 33, 33);"></path></g><g class="" style="transform-origin: 50px 50px 0px; animation-duration: 1.1s; animation-delay: -0.85s;"><path class="st3" d="M72.2,51.7l9.8-16.9c1.3-2.2,1.6-4.8,1-7.2c-0.7-2.5-2.2-4.5-4.4-5.8L71.8,18c0.2,0.9,0.4,1.9,0.4,2.9V51.7z" fill="#212121" style="fill: rgb(33, 33, 33);"></path></g><g class="" style="transform-origin: 50px 50px 0px; animation-duration: 1.1s; animation-delay: -0.8s;"><path class="st5" d="M70,40.4V20.9c0-5.3-4.3-9.5-9.5-9.5h-7.7c0.7,0.7,1.3,1.5,1.8,2.3L70,40.4z" fill="#47d5cf" style="fill: rgb(71, 213, 207);"></path></g><g class="" style="transform-origin: 50px 50px 0px; animation-duration: 1.1s; animation-delay: -0.75s;"><path class="st4" d="M14.8,47.2c-2.2,1.3-3.8,3.3-4.4,5.8c-0.7,2.5-0.3,5,1,7.2l3.8,6.7c0.3-0.9,0.6-1.9,1.1-2.7l15.4-26.7 L14.8,47.2z" fill="#212121" style="fill: rgb(33, 33, 33);"></path></g><g class="" style="transform-origin: 50px 50px 0px; animation-duration: 1.1s; animation-delay: -0.7s;"><path class="st4" d="M84.9,33.1c-0.3,0.9-0.6,1.9-1.1,2.7L68.3,62.6l16.9-9.8c2.2-1.3,3.8-3.3,4.4-5.8c0.7-2.5,0.3-5-1-7.2 L84.9,33.1z" fill="#212121" style="fill: rgb(33, 33, 33);"></path></g><g class="" style="transform-origin: 50px 50px 0px; animation-duration: 1.1s; animation-delay: -0.65s;"><path class="st3" d="M48.3,72.2l16.9,9.8c2.2,1.3,4.8,1.6,7.2,1c2.5-0.7,4.5-2.2,5.8-4.4l3.8-6.7c-0.9,0.2-1.9,0.4-2.9,0.4H48.3z" fill="#212121" style="fill: rgb(33, 33, 33);"></path></g><g class="" style="transform-origin: 50px 50px 0px; animation-duration: 1.1s; animation-delay: -0.6s;"><path class="st5" d="M59.6,70h19.5c5.3,0,9.5-4.3,9.5-9.5v-7.7c-0.7,0.7-1.5,1.3-2.3,1.8L59.6,70z" fill="#47d5cf" style="fill: rgb(71, 213, 207);"></path></g><g class="" style="transform-origin: 50px 50px 0px; animation-duration: 1.1s; animation-delay: -0.55s;"><path class="st5" d="M30,59.6v19.5c0,5.3,4.3,9.5,9.5,9.5h7.7c-0.7-0.7-1.3-1.5-1.8-2.3L30,59.6z" fill="#47d5cf" style="fill: rgb(71, 213, 207);"></path></g><g class="" style="transform-origin: 50px 50px 0px; animation-duration: 1.1s; animation-delay: -0.5s;"><path class="st4" d="M37.4,68.3l9.8,16.9c1.3,2.2,3.3,3.8,5.8,4.4c2.5,0.7,5,0.3,7.2-1l6.6-3.8c-0.9-0.3-1.9-0.6-2.7-1.1L37.4,68.3z " fill="#212121" style="fill: rgb(33, 33, 33);"></path></g><metadata xmlns:d="https://loading.io/stock/" class="" style="transform-origin: 50px 50px 0px; animation-duration: 1.1s; animation-delay: -0.45s;">
<d:name class="" style="transform-origin: 50px 50px 0px; animation-duration: 1.1s; animation-delay: -0.4s;">rope</d:name>
<d:tags class="" style="transform-origin: 50px 50px 0px; animation-duration: 1.1s; animation-delay: -0.35s;">hemp twist,wreath,camera,shutter,exposure,cord,cable,rope,spinner</d:tags>
<d:license class="" style="transform-origin: 50px 50px 0px; animation-duration: 1.1s; animation-delay: -0.3s;">rf</d:license>
<d:slug class="" style="transform-origin: 50px 50px 0px; animation-duration: 1.1s; animation-delay: -0.25s;">bd2vbp</d:slug>
</metadata></g></g><style type="text/css" class="" style="transform-origin: 50px 50px 0px; animation-duration: 1.1s; animation-delay: -0.2s;">path,ellipse,circle,rect,polygon,polyline,line { stroke-width: 0; }@keyframes ld-spin {
  0% {
    -webkit-transform: rotate(0);
    transform: rotate(0);
    animation-timing-function: cubic-bezier(0.55, 0.055, 0.675, 0.19);
  }
  50% {
    -webkit-transform: rotate(180deg);
    transform: rotate(180deg);
    animation-timing-function: cubic-bezier(0.215, 0.61, 0.355, 1);
  }
  100% {
    -webkit-transform: rotate(360deg);
    transform: rotate(360deg);
  }
}
@-webkit-keyframes ld-spin {
  0% {
    -webkit-transform: rotate(0);
    transform: rotate(0);
    animation-timing-function: cubic-bezier(0.55, 0.055, 0.675, 0.19);
  }
  50% {
    -webkit-transform: rotate(180deg);
    transform: rotate(180deg);
    animation-timing-function: cubic-bezier(0.215, 0.61, 0.355, 1);
  }
  100% {
    -webkit-transform: rotate(360deg);
    transform: rotate(360deg);
  }
}
.ld.ld-spin {
  -webkit-animation: ld-spin 1s infinite;
  animation: ld-spin 1s infinite;
}
</style></svg></svg>